<?xml version="1.0" encoding="utf-8"?>
<!DOCTYPE svg PUBLIC "-//W3C//DTD SVG 1.1//EN" "http://www.w3.org/Graphics/SVG/1.1/DTD/svg11.dtd">
<svg version="1.1" id="Layer_1" xmlns="http://www.w3.org/2000/svg" xmlns:xlink="http://www.w3.org/1999/xlink" x="0px" y="0px"
	 viewBox="383.4771 -40.7072 1792.4318 1793.0665" enable-background="new 383.4771 -40.7072 1792.4318 1793.0665"
	 xml:space="preserve">
<g>
	<path fill="#FFFFFF" d="M2012.4086,533.7719l-16.4594-35.1054c9.7665,19.4809-87.7496,48.8198-283.0516,80.1351
		c-128.9998,20.6843-281.1252,39.0983-433.4751,53.4025c6.2386,61.2922,12.5514,125.4468,18.8125,191.3864
		c162.0753-15.2173,323.912-34.8068,461.1466-56.8115c202.5615-32.4794,306.2444-62.9602,301.687-83.6726l-6.9553-29.056
		C2030.8162,577.0205,2028.3809,568.9683,2012.4086,533.7719 M1789.172,238.8795l-37.8085-29.3665
		c19.1057,13.756-49.9542,36.02-198.8732,59.8982c-91.839,14.7258-200.1421,27.8353-308.6047,38.0189
		c5.4395,45.5295,11.2041,96.0754,17.1686,150.5606c134.0693-12.5878,267.9414-28.7924,381.4624-46.9947
		c176.9142-28.367,262.6482-54.8911,248.0869-72.0072l-12.4198-14.3055C1824.8911,269.157,1818.0438,262.0228,1789.172,238.8795
		 M1453.1873,74.5962c-38.2428-7.6625-40.5321-8.1212-66.1895-11.6498c37.536,3.7038,16.3115,14.346-56.5714,26.0323
		c-34.0065,5.4527-74.1094,10.307-114.2714,14.0778c3.636,21.1541,7.8486,49.4806,12.5123,83.9021
		c76.7509-7.2062,153.3888-16.4828,218.3763-26.9031c112.3346-18.0121,160.4524-34.7262,137.2333-44.2329l-8.7236-3.5372
		C1517.1154,91.2862,1497.4291,84.2122,1453.1873,74.5962 M1152.5388,65.9408c17.7687-2.8491,35.9763-4.1177,54.577-3.7196
		C1188.5151,61.8232,1170.3075,63.0917,1152.5388,65.9408 M1671.2205,1553.7577l42.1835-25.4408
		c-14.5784,9.2054-61.334,20.8942-138.0029,33.1875c-162.4982,26.0554-397.8383,44.9603-525.6467,42.2251
		c-39.3369-0.8419-63.9027-3.6355-74.326-7.8594l22.5151,8.8838c63.2587,21.4589,71.3864,24.2159,123.6075,35.5021
		c14.9169,2.7041,34.8463,6.1034,49.8427,8.325c6.439,0.6843,14.7284,1.152,24.908,1.3699
		c66.8843,1.4314,190.0417-8.4619,275.0797-22.0972c27.0131-4.3313,46.9302-8.5193,59.3898-12.2637
		c6.7421-2.3011,15.7557-5.3008,22.4574-7.717C1597.7206,1590.1246,1629.8668,1577.3011,1671.2205,1553.7577 M1943.6337,1302.3459
		l30.6816-49.3075c-9.7798,16.9111-94.6936,40.212-248.7256,64.91c-283.8604,45.5151-694.9648,78.5391-918.2275,73.761
		c-84.0942-1.7997-129.5441-8.7057-138.3615-19.0483l22.2131,25.1211c57.7509,58.0295,57.7509,58.0295,90.5519,84.1741
		l26.4716,20.1791c10.3436,7.4603,46.608,12.4196,110.1173,13.7787c180.6171,3.8654,513.1964-22.8506,742.8365-59.6719
		c118.9453-19.072,186.9432-37.1144,199.761-50.6141l5.9178-6.3273C1915.2091,1342.9127,1923.9193,1332.7522,1943.6337,1302.3459
		 M2073.9661,953.892c1.7219-21.0167,4.6702-49.0055,5.4651-70.0776c-0.718,20.6669-104.2217,50.4485-301.8198,82.1321
		c-343.144,55.0208-840.1068,94.9417-1109.9974,89.1658c-110.5692-2.3663-165.8733-12.0352-169.042-26.4093l10.8652,43.5394
		c26.0364,80.5481,26.0364,80.5481,43.8625,119.1801l10.3581,21.5651c6.3574,12.6953,58.272,21.2046,158.3716,23.3468
		c253.7012,5.4294,720.8538-32.0968,1043.4143-83.8171c180.8925-29.0049,277.896-56.3142,283.4646-75.6654
		C2057.8804,1040.2905,2069.3979,991.26,2073.9661,953.892"/>
	<linearGradient id="SVGID_1_" gradientUnits="userSpaceOnUse" x1="563.6577" y1="855.826" x2="2079.4778" y2="855.826">
		<stop  offset="0" style="stop-color:#550210"/>
		<stop  offset="0.1405" style="stop-color:#C70016"/>
		<stop  offset="0.1886" style="stop-color:#C70016"/>
		<stop  offset="0.3056" style="stop-color:#7B0922"/>
		<stop  offset="0.3452" style="stop-color:#620010"/>
		<stop  offset="0.4529" style="stop-color:#890017"/>
		<stop  offset="0.6323" style="stop-color:#D90522"/>
		<stop  offset="0.7074" style="stop-color:#A6061D"/>
		<stop  offset="0.7891" style="stop-color:#740818"/>
		<stop  offset="0.8295" style="stop-color:#610816"/>
		<stop  offset="0.8763" style="stop-color:#550110"/>
		<stop  offset="0.9385" style="stop-color:#8F0019"/>
		<stop  offset="1" style="stop-color:#441A20"/>
	</linearGradient>
	<path fill="url(#SVGID_1_)" d="M1152.5408,65.9404c10.6862-1.658,10.8904-1.6895,16.2074-2.4314
		c8.9711-1.2139,8.9711-1.2139,13.3629-1.7524c7.8984-0.9387,7.8984-0.9387,11.7888-1.3577
		c7.3875-0.7698,7.3875-0.7698,11.0425-1.1128c7.2852-0.6586,7.2852-0.6586,10.9147-0.9507
		c7.1399-0.5488,7.5673-0.5818,11.3567-0.8325c8.1301-0.5074,8.2855-0.5171,12.4723-0.73c8.9221-0.4142,9.6509-0.448,14.5681-0.6079
		c11.6453-0.3152,12.0999-0.3274,18.3101-0.3887c15.9199-0.0349,16.5415-0.0364,25.1475,0.1461
		c26.3129,1.0487,51.1664,2.0394,89.2861,7.0238c37.536,3.7039,16.3115,14.3459-56.5714,26.0323
		c-34.0065,5.4528-74.1094,10.307-114.2714,14.0778c-3.6292-21.1145-6.6838-35.0833-9.0391-40.8352
		C1188.5159,61.8231,1170.3088,63.0916,1152.5408,65.9404z M1585.9119,116.5697c-0.5021-0.2533-1.0391-0.5033-1.635-0.7472
		C1584.8164,116.0688,1585.3663,116.3203,1585.9119,116.5697z M1447.0437,160.0554
		c-64.9875,10.4203-141.6255,19.6969-218.3763,26.9031c4.6637,34.4214,9.7782,74.9377,15.2181,120.4716
		c108.4629-10.1835,216.7659-23.2931,308.6049-38.0189c148.9191-23.8782,217.9789-46.1421,198.8732-59.8982
		c-18.5791-13.2924-44.3708-29.5414-63.5586-41.9391c-29.3224-17.4651-70.501-36.6553-101.8931-51.0042
		C1604.9719,126.1891,1556.4951,142.5056,1447.0437,160.0554z M1642.5166,410.9961
		c-113.521,18.2023-247.3931,34.4067-381.4624,46.9946c5.9648,54.4902,12.1296,112.9207,18.3683,174.2134
		c152.3499-14.3042,304.4753-32.7182,433.475-53.4024c195.3021-31.3154,292.8182-60.6542,283.0518-80.1352
		c-11.9424-23.0391-29.5967-52.8295-42.7739-75.1852c-16.9087-26.6266-43.1155-59.6666-62.5718-84.4926
		C1905.1648,356.105,1819.4308,382.629,1642.5166,410.9961z M2076.5029,782.8055c-2.4836-30.1639-10.1414-69.8995-15.4343-99.6992
		c4.5574,20.7124-99.1255,51.1932-301.687,83.6726c-137.2346,22.0046-299.0713,41.5942-461.1466,56.8115
		c3.1281,32.9437,6.2433,66.3329,9.33,100.0333c3.0916,33.7544,6.0645,66.8366,8.9114,99.1328
		c162.0713-15.2169,323.9038-34.8059,461.135-56.81c197.5981-31.6835,301.1018-61.4652,301.8198-82.1321
		C2079.7856,853.5011,2078.0471,813.0816,2076.5029,782.8055z M1765.4436,1152.5172
		c-322.5605,51.7203-789.7131,89.2466-1043.4143,83.8171c-100.0995-2.1422-152.0142-10.6515-158.3716-23.3468
		c14.2137,26.8087,34.9349,61.5981,50.8234,87.4496c15.5103,22.2803,37.7738,50.8567,54.5196,72.224
		c8.8174,10.3427,54.2673,17.2487,138.3615,19.0483c223.2627,4.7781,634.3671-28.2458,918.2275-73.761
		c154.0321-24.698,238.9458-47.9989,248.7257-64.9102c9.7791-17.1691,21.3097-40.8833,30.3748-58.4398
		c17.785-38.0049,17.785-38.0049,43.9307-116.7509l0.2874-0.9958C2043.3396,1096.2029,1946.3361,1123.5122,1765.4436,1152.5172z
		 M918.3546,1515.9141c-63.5093-1.3591-99.7737-6.3184-110.1173-13.7787c22.3003,15.6476,53.0996,34.9558,76.2482,49.3188
		c26.7707,14.3259,63.3201,31.8108,90.9429,44.4158c10.4233,4.2239,34.9891,7.0176,74.3259,7.8594
		c127.8086,2.7352,363.1487-16.1696,525.6469-42.225c76.6691-12.2935,123.4246-23.9822,138.0029-33.1875
		c19.1725-12.6952,43.7733-31.0308,62.3157-44.6299l0,0c26.9513-21.2791,59.8368-53.1514,84.5101-77.3507
		c-14.4783,13.4192-82.1604,31.1652-199.0387,49.9059C1431.551,1493.0635,1098.9717,1519.7794,918.3546,1515.9141z
		 M1860.2297,1406.3363c0.2561-0.2373,0.4995-0.4736,0.7223-0.7083C1860.7139,1405.8618,1860.4695,1406.1012,1860.2297,1406.3363z
		 M1196.3015,1649.9507c-10.1797-0.2178-18.469-0.6854-24.908-1.3699c40.238,5.1921,61.3208,6.0128,90.5007,7.1488
		c8.6061,0.1824,9.2275,0.181,25.1475,0.1461c6.2085-0.0613,6.6631-0.0736,18.3101-0.3887
		c4.915-0.1599,5.4602-0.1853,14.5681-0.6079c4.1868-0.2129,4.3422-0.2225,12.4723-0.7301
		c3.7894-0.2507,4.2168-0.2836,11.3567-0.8325c3.6266-0.292,3.6266-0.292,10.9147-0.9506c3.655-0.3431,3.655-0.3431,11.0425-1.1129
		c3.8877-0.4189,3.8877-0.4189,11.7888-1.3575c4.3894-0.5387,4.3894-0.5387,13.3629-1.7526
		c5.3153-0.7418,5.3153-0.7418,16.208-2.4315c55.7122-8.9969,99.9429-22.7389,123.7052-30.1216
		c-12.4596,3.7445-32.3767,7.9324-59.3898,12.2638C1386.3433,1641.4889,1263.1858,1651.3821,1196.3015,1649.9507z"/>
	<linearGradient id="SVGID_2_" gradientUnits="userSpaceOnUse" x1="898.1922" y1="1055.6678" x2="898.1922" y2="62.1497">
		<stop  offset="0" style="stop-color:#030844"/>
		<stop  offset="0.0843" style="stop-color:#435CFA"/>
		<stop  offset="0.1914" style="stop-color:#293881"/>
		<stop  offset="0.2834" style="stop-color:#1736A9"/>
		<stop  offset="0.3232" style="stop-color:#2643C5"/>
		<stop  offset="0.3881" style="stop-color:#435CFA"/>
		<stop  offset="0.4812" style="stop-color:#1038BD"/>
		<stop  offset="0.5876" style="stop-color:#143098"/>
		<stop  offset="0.6925" style="stop-color:#435CFA"/>
		<stop  offset="0.7709" style="stop-color:#1D2663"/>
		<stop  offset="0.868" style="stop-color:#435CFA"/>
		<stop  offset="1" style="stop-color:#03043B"/>
	</linearGradient>
	<path fill="url(#SVGID_2_)" d="M492.9793,910.2117l8.3362,57.0499l-11.3781-37.9067l-1.5013,30.8707l-3.4088-54.3767
		l-4.5249-38.1749c0.8197,1.6208,2.3348,3.1778,4.5502,4.6668l3.4098-53.5982l1.4896,56.275
		c3.0818,1.4042,6.8672,2.738,11.3609,3.9974L492.9793,910.2117 M617.5255,926.0281l15.8433,56.1851l-30.919-35.6575
		l-21.1039,33.0187l4.0622-55.1952l-24.1819-36.1261c8.7963,0.7757,18.3151,1.4651,28.561,2.0642l9.9722-54.5616l9.8171,55.5663
		c11.1448,0.4862,23.0196,0.8798,35.6294,1.1766L617.5255,926.0281 M861.4243,924.4506l20.6287,55.2176l-43.7744-33.0325
		l-35.6545,35.5897l9.6887-56.2614l-39.9743-33.4705c15.3823-0.2894,31.1558-0.6716,47.2805-1.1432l13.4673-55.5522l16.7589,54.5781
		c16.4982-0.5794,33.3211-1.2458,50.4289-1.9962L861.4243,924.4506 M1166.5853,906.3591l22.7485,54.4073l-49.3647-30.9008
		l-42.4352,37.8088l12.2817-57.0433l-47.8618-31.2553c18.5208-1.2314,37.207-2.5377,56.0189-3.9152l13.5388-56.2544l21.375,53.6268
		c18.9005-1.4606,37.9014-2.9902,56.9625-4.5857L1166.5853,906.3591 M486.7303,749.2451l3.4146-22.9998
		c-0.1647,0.9994-0.0889,1.9777,0.2281,2.9341L486.7303,749.2451 M541.4307,780.6558l3.0113,55.2813l-15.2728-35.948
		l-16.6941,31.0068l9.4268-53.3086l-8.2592-35.8374c4.6217,1.1909,9.928,2.3093,15.9233,3.3513l15.3028-51.9003l-3.3595,53.7488
		c6.868,0.9481,14.4313,1.8171,22.6946,2.6032L541.4307,780.6558 M728.0556,787.991l11.9102,54.353l-34.026-33.5346l-33.947,33.5454
		l14.5842-54.3215l-28.5785-33.6424c12.4906,0.2508,25.4708,0.4028,38.9015,0.459l18.7039-52.9929l6.7102,52.9882
		c13.9686-0.0609,28.3634-0.2156,43.1456-0.4609L728.0556,787.991 M1002.2422,777.9641l18.4957,53.3319l-44.6473-31.1075
		l-41.6812,35.9187l15.1488-55.172l-41.1089-31.1453c16.7619-0.7626,33.7941-1.6064,51.0576-2.5284l16.9931-53.7289l15.2865,51.9299
		c17.5401-1.0176,35.2875-2.1115,53.2036-3.2783L1002.2422,777.9641 M524.2746,637.8582l-10.1357,52.8032l0.4483-35.2249
		l-12.7046,28.5293l15.0197-50.1716l6.9049-34.6661c0.7502,1.4833,2.1368,2.9082,4.1642,4.2709l20.7217-48.2002l-16.238,50.6499
		c2.8203,1.285,6.2846,2.5057,10.3971,3.6583L524.2746,637.8582 M639.9671,652.5519l-0.1638,52.3376l-19.7289-33.3264
		l-29.7771,30.8152l19.8605-51.3712l-12.4751-33.0459c8.05,0.7099,16.7612,1.3408,26.1379,1.8891l24.2523-49.4602l-6.1418,50.3796
		c10.1992,0.4449,21.0667,0.8051,32.6068,1.0767L639.9671,652.5519 M866.5417,651.0734l9.9142,51.3942l-35.2837-30.8298
		L800.87,704.9012l20.088-52.4081l-30.0727-30.6509c14.0773-0.2649,28.5127-0.6146,43.2695-1.0463l22.2618-50.3677l5.4,49.4761
		c15.0986-0.5302,30.4943-1.1401,46.1508-1.8268L866.5417,651.0734 M1150.0203,634.2681l18.8502,50.2123l-44.8405-28.5658
		l-42.5182,35.1396l15.8044-52.82l-41.3854-28.397c16.9495-1.127,34.0505-2.3224,51.2665-3.5831l15.6906-50.6413l16.2614,48.2366
		c17.2971-1.3366,34.6859-2.7365,52.13-4.1967L1150.0203,634.2681 M562.4477,501.5906l-22.068,49.1642l7.9706-19.3203
		c12.5621-25.5518,29.5825-59.5204,43.6364-84.2829l-14.2033,24.8855c-0.6996,1.4748-0.8239,2.9002-0.3687,4.273L562.4477,501.5906
		 M611.0529,521.2635l-13.7095,49.3142l-3.3658-32.2117l-25.2366,27.7906l25.2576-47.4667l3.3888-31.5045
		c3.9692,1.0228,8.5268,1.9832,13.6766,2.8781l29.7646-44.9303l-19.5333,46.5139c5.8977,0.8144,12.393,1.5608,19.4899,2.2358
		L611.0529,521.2635 M773.8375,527.6777l-1.5494,48.6326l-22.5801-30.1746L711.4694,576.32l26.1905-48.6211l-16.3687-29.7493
		c10.7274,0.2154,21.8754,0.3459,33.4106,0.3941l28.7187-46.0647l-6.9475,46.0607c11.9963-0.0522,24.3588-0.185,37.0543-0.3956
		L773.8375,527.6777 M1013.0165,518.9313l10.4921,47.4938l-35.8212-27.8837l-41.4211,32.1885l20.8153-49.224l-30.8233-27.5054
		c14.3958-0.655,29.0237-1.3798,43.8505-2.1716l21.2028-46.5022l6.4498,44.9611c15.0638-0.8739,30.3058-1.8133,45.6927-2.8154
		L1013.0165,518.9313 M639.7751,398.4251l-26.0762,44.7105l11.3602-29.9532l-21.6205,24.3481l30.3467-42.4137l16.8414-28.6604
		c0.5981,1.1826,1.7034,2.3187,3.3192,3.4052l34.8793-39.3538l-31.2954,41.3119c2.2493,1.0245,5.0116,1.9977,8.2906,2.9166
		L639.7751,398.4251 M733.8638,410.3724l-14.9659,44.6743l-7.0885-28.6021l-34.355,26.4998l32.157-43.8302l-0.0488-27.6333
		c6.4184,0.566,13.3636,1.0691,20.8391,1.5063l35.103-40.7581l-20.6274,41.493c8.1324,0.3547,16.7973,0.6418,25.998,0.8583
		L733.8638,410.3724 M918.1202,409.1677l-1.1106,43.8515l-23.3807-26.5122l-39.8954,28.5494l27.2909-44.7478l-17.3306-25.7317
		c11.2238-0.2112,22.7328-0.49,34.498-0.8341l28.0663-41.4845l-5.9556,40.7719c12.0382-0.4228,24.3132-0.9091,36.796-1.4566
		L918.1202,409.1677 M1148.6226,395.5021l13.1794,42.4592l-35.5535-24.385l-37.5781,29.8882l17.0569-44.7344l-30.588-23.7303
		c13.5135-0.8986,27.1481-1.8516,40.8741-2.8567l15.8481-41.3159l9.6917,39.3937c13.7909-1.0657,27.6549-2.1819,41.563-3.346
		L1148.6226,395.5021 M717.1037,288.2137l-36.157,38.8762l23.0012-26.4258l-8.5505,8.8254
		c14.2646-14.1578,32.892-33.4542,47.7341-47.0054c-0.3574,0.322-0.6814,0.6414-0.9719,0.9579l38.9065-32.6941l-40.3243,34.7185
		c-0.5089,1.0725-0.5992,2.1092-0.2682,3.1076L717.1037,288.2137 M753.3597,302.8907l-28.3438,39.5348l8.4484-25.8272
		l-30.5763,22.4069l37.739-38.0429l14.3722-24.4791c2.8867,0.7438,6.2012,1.4424,9.9465,2.0931l40.9253-34.4265l-33.4844,35.5782
		c4.2892,0.5923,9.013,1.1351,14.1743,1.626L753.3597,302.8907 M874.7291,307.6649l-14.3694,39.1957l-9.048-24.3845l-38.0037,24.392
		l34.4244-39.175l-2.6225-23.3813c7.8016,0.1566,15.9092,0.2516,24.2984,0.2866l35.5554-35.4825l-19.722,35.4796
		c8.7245-0.038,17.7153-0.1346,26.9483-0.2878L874.7291,307.6649 M1053.0861,301.1424l1.6272,38.0706l-23.3312-22.4833
		l-36.4264,25.8137l23.8514-39.4678l-17.3592-21.6359c10.4695-0.4763,21.1079-1.0034,31.8909-1.5793l23.046-35.576l-2.9353,34.4552
		c10.9553-0.6356,22.0404-1.3187,33.2307-2.0475l-33.5944,24.4505 M824.7109,210.0248l-39.3052,32.8434l21.028-22.0131
		l-28.1848,18.1034l42.5123-31.1262l25.3148-20.2183c0.3815,0.7544,1.0867,1.479,2.1178,2.1721l45.9277-27.034l-43.6474,28.2798
		c1.4344,0.6535,3.1962,1.2743,5.2877,1.8605L824.7109,210.0248 M886.994,217.9334l-28.21,33.2429l6.2944-21.3558l-35.2021,19.8895
		l41.0768-32.6124l12.6942-19.9056c4.0941,0.361,8.5244,0.6819,13.2932,0.9608l42.6919-28.4439l-33.4813,28.9115
		c5.1871,0.2263,10.714,0.4095,16.583,0.5476L886.994,217.9334 M1008.973,217.1331l-12.0018,32.6291l-8.9876-19.8965
		l-35.1489,21.3175l31.5917-33.2879l-2.5206-18.7296c7.1594-0.1347,14.5009-0.3126,22.0059-0.5321l31.1318-28.9073l-17.0636,28.4539
		c7.6788-0.2697,15.5087-0.5798,23.4712-0.9291L1008.973,217.1331 M1161.551,208.0873l6.1677,31.1717l-22.4744-18.135
		l-28.5364,21.9736l16.4491-32.8736l-16.4553-17.1637c8.6201-0.5732,17.3174-1.1811,26.073-1.8223l14.2992-28.2964l1.9508,27.0734
		c8.7969-0.6798,17.6405-1.3917,26.5121-2.1343L1161.551,208.0873 M1033.6692,94.7945l2.345-0.8004l-3.2063,1.0744
		L1033.6692,94.7945 M934.5563,136.0397l-47.2685,24.9698l29.5869-17.0479l-27.0743,13.4543l46.0776-23.2661l31.7366-14.6928
		c-0.9432,0.6021-1.6765,1.188-2.1982,1.7564l49.5515-18.5763l-50.2776,19.6131c-0.2597,0.5479-0.3057,1.0776-0.1367,1.5876
		L934.5563,136.0397 M954.4238,144.0561l-40.805,26.1164l19.9945-17.1746l-33.2157,15.131l47.0242-25.1166l24.5572-15.1312
		c1.4748,0.38,3.168,0.7369,5.0812,1.0694l48.9115-20.368l-45.1004,20.9578c2.1915,0.3026,4.605,0.5798,7.2418,0.8307
		L954.4238,144.0561 M1020.7655,146.6781l-26.2801,26.1443l5.9707-16.4936l-34.0836,16.4981l39.6261-26.1386l12.0444-14.8053
		c3.9858,0.08,8.1277,0.1285,12.4135,0.1465l39.4744-21.2439l-31.3647,21.2424c4.4574-0.0194,9.0508-0.0688,13.7678-0.147
		L1020.7655,146.6781 M1118.3135,143.1107l-7.7035,25.1423l-8.0432-15.1828l-27.6615,17.1727l24.6589-26.0801l-1.6024-13.7481
		c5.3488-0.2434,10.7838-0.5126,16.2926-0.8068l22.8491-20.9658l-12.5487,20.3917c5.597-0.3247,11.2603-0.6738,16.9772-1.0461
		L1118.3135,143.1107 M1091.5153,78.4024l-7.6384,2.0332c9.776-2.3686,22.8176-5.5029,32.6375-7.6827l11.0815-2.3445
		c-2.0242,0.3637-3.9569,0.7246-5.7977,1.0823l40.1962-6.3058l-43.4971,6.9637c-1.7272,0.3534-3.3618,0.7031-4.9034,1.0487
		L1091.5153,78.4024 M1066.1027,85.4953l-51.1811,15.6512l33.2785-10.8939l-27.0974,8.3489l47.8085-14.2627l33.3131-8.152
		c-0.9756,0.3152-1.8561,0.6245-2.6406,0.9273l51.4407-9.051l-52.7825,9.6036c-0.6659,0.2945-1.2356,0.5822-1.7083,0.8624
		L1066.1027,85.4953 M1064.3595,90.885l-50.0073,17.4361l29.443-11.7275l-32.6598,9.9701l51.7815-16.4817l32.0004-9.2391
		c0.1166,0.2307,0.3323,0.4522,0.6475,0.6641l53.9097-11.2186L1096.262,81.888c0.4386,0.1998,0.9773,0.3896,1.6168,0.5689
		L1064.3595,90.885 M1087.2285,93.7889l-39.8944,18.2665l19.9731-11.8673l-32.9666,11.2082l47.0046-17.9124l25.0598-9.7124
		c1.2518,0.1104,2.6064,0.2085,4.0646,0.2938l47.2509-12.5163l-44.4347,12.6593c1.5861,0.0692,3.276,0.1252,5.0706,0.1674
		L1087.2285,93.7889 M1132.0208,93.4969l-22.5747,17.9228l7.1255-11.2112l-26.9639,11.8499l33.4294-18.2912l13.4117-9.3922
		c2.1891-0.0412,4.4338-0.0956,6.7286-0.1627l31.8308-12.6602l-27.5293,12.5215c2.3479-0.0825,4.7419-0.1773,7.1766-0.2841
		L1132.0208,93.4969 M1188.0414,90.1757l-1.8481,16.5231l-6.5638-9.9955l-16.3644,11.7208l14.3512-17.464l0.0483-8.452
		c2.6357-0.1753,5.295-0.3611,7.9722-0.5572l11.4825-11.6282l-6.5139,11.2543c2.6898-0.2079,5.3938-0.4255,8.1064-0.6526
		L1188.0414,90.1757 M1216.155,103.0564c-3.6292-21.1144-6.6838-35.0833-9.0392-40.8352
		c-18.6007-0.398-36.8083,0.8705-54.577,3.7196c-66.6182,11.7167-125.4291,28.6017-185.0814,53.1381
		c-61.1719,28.424-69.0315,32.076-113.5214,59.321c-64.1216,43.8055-66.6246,45.5155-100.3547,74.7828
		c-58.1854,54.9017-59.297,55.9506-86.7333,88.5513c-49.2589,63.4729-50.1999,64.6855-71.9464,100.5603
		c-39.1505,70.7018-39.8984,72.0526-55.7972,110.7882c-27.9835,76.6802-28.5181,78.1451-38.2128,119.2239
		c-15.7945,81.4294-16.0963,82.985-19.1611,125.8582c-2.6006,84.9647-2.6502,86.588,1.3724,130.6819
		c3.9814,30.0517,9.6139,70.113,15.4689,99.8564c3.1687,14.3741,58.4728,24.043,169.042,26.4093
		c161.9552,3.4659,405.6774-9.5231,648.8624-32.3558c-2.8469-32.2962-5.8198-65.3784-8.9114-99.1328
		c-3.0867-33.7004-6.2019-67.0896-9.33-100.0333c-6.2611-65.9396-12.5739-130.0942-18.8125-191.3864
		c-6.2386-61.2928-12.4033-119.7231-18.3683-174.2134c-5.9645-54.4852-11.7291-105.0311-17.1686-150.5606
		c-5.4399-45.5338-10.5546-86.0501-15.2183-120.4716S1219.791,124.2105,1216.155,103.0564"/>
	<path fill="#FFFFFF" d="M1091.5153,78.4024l-7.6384,2.0332c9.776-2.3686,22.8176-5.5029,32.6375-7.6827l11.0815-2.3445
		c-2.0242,0.3637-3.9569,0.7246-5.7977,1.0823l40.1962-6.3058l-43.4971,6.9637c-1.7272,0.3534-3.3618,0.7031-4.9034,1.0487
		L1091.5153,78.4024"/>
	<path fill="#FFFFFF" d="M1066.1027,85.4953l-51.1811,15.6512l33.2785-10.8939l-27.0974,8.3489l47.8085-14.2627l33.3131-8.152
		c-0.9756,0.3152-1.8561,0.6245-2.6406,0.9273l51.4407-9.051l-52.7825,9.6036c-0.6659,0.2945-1.2356,0.5822-1.7083,0.8624
		L1066.1027,85.4953"/>
	<path fill="#FFFFFF" d="M1064.3595,90.885l-50.0073,17.4361l29.443-11.7275l-32.6598,9.9701l51.7815-16.4817l32.0004-9.2391
		c0.1166,0.2307,0.3323,0.4522,0.6475,0.6641l53.9097-11.2186L1096.262,81.888c0.4386,0.1998,0.9773,0.3896,1.6168,0.5689
		L1064.3595,90.885"/>
	<path fill="#FFFFFF" d="M1087.2285,93.7889l-39.8944,18.2665l19.9731-11.8673l-32.9666,11.2082l47.0046-17.9124l25.0598-9.7124
		c1.2518,0.1104,2.6064,0.2085,4.0646,0.2938l47.2509-12.5163l-44.4347,12.6593c1.5861,0.0692,3.276,0.1252,5.0706,0.1674
		L1087.2285,93.7889"/>
	<path fill="#FFFFFF" d="M1132.0208,93.4969l-22.5747,17.9228l7.1255-11.2112l-26.9639,11.8499l33.4294-18.2912l13.4117-9.3922
		c2.1891-0.0412,4.4338-0.0956,6.7286-0.1627l31.8308-12.6602l-27.5293,12.5215c2.3479-0.0825,4.7419-0.1773,7.1766-0.2841
		L1132.0208,93.4969"/>
	<path fill="#FFFFFF" d="M1188.0414,90.1757l-1.8481,16.5231l-6.5638-9.9955l-16.3644,11.7208l14.3512-17.464l0.0483-8.452
		c2.6357-0.1753,5.295-0.3611,7.9722-0.5572l11.4825-11.6282l-6.5139,11.2543c2.6898-0.2079,5.3938-0.4255,8.1064-0.6526
		L1188.0414,90.1757"/>
	<polyline fill="#FFFFFF" points="1033.6692,94.7945 1036.0142,93.9941 1032.8079,95.0685 1033.6692,94.7945 	"/>
	<path fill="#FFFFFF" d="M934.5563,136.0397l-47.2685,24.9698l29.5869-17.0479l-27.0743,13.4543l46.0776-23.2661l31.7366-14.6928
		c-0.9432,0.6021-1.6765,1.188-2.1982,1.7564l49.5515-18.5763l-50.2776,19.6131c-0.2597,0.5479-0.3057,1.0776-0.1367,1.5876
		L934.5563,136.0397"/>
	<path fill="#FFFFFF" d="M954.4238,144.0561l-40.805,26.1164l19.9945-17.1746l-33.2157,15.131l47.0242-25.1166l24.5572-15.1312
		c1.4748,0.38,3.168,0.7369,5.0812,1.0694l48.9115-20.368l-45.1004,20.9578c2.1915,0.3026,4.605,0.5798,7.2418,0.8307
		L954.4238,144.0561"/>
	<path fill="#FFFFFF" d="M1020.7655,146.6781l-26.2801,26.1443l5.9707-16.4936l-34.0836,16.4981l39.6261-26.1386l12.0444-14.8053
		c3.9858,0.08,8.1277,0.1285,12.4135,0.1465l39.4744-21.2439l-31.3647,21.2424c4.4574-0.0194,9.0508-0.0688,13.7678-0.147
		L1020.7655,146.6781"/>
	<path fill="#FFFFFF" d="M1118.3135,143.1107l-7.7035,25.1423l-8.0432-15.1828l-27.6615,17.1727l24.6589-26.0801l-1.6024-13.7481
		c5.3488-0.2434,10.7838-0.5126,16.2926-0.8068l22.8491-20.9658l-12.5487,20.3917c5.597-0.3247,11.2603-0.6738,16.9772-1.0461
		L1118.3135,143.1107"/>
	<path fill="#FFFFFF" d="M824.7109,210.0248l-39.3052,32.8434l21.028-22.0131l-28.1848,18.1034l42.5123-31.1262l25.3148-20.2183
		c0.3815,0.7544,1.0867,1.479,2.1178,2.1721l45.9277-27.034l-43.6474,28.2798c1.4344,0.6535,3.1962,1.2743,5.2877,1.8605
		L824.7109,210.0248"/>
	<path fill="#FFFFFF" d="M886.994,217.9334l-28.21,33.2429l6.2944-21.3558l-35.2021,19.8895l41.0768-32.6124l12.6942-19.9056
		c4.0941,0.361,8.5244,0.6819,13.2932,0.9608l42.6919-28.4439l-33.4813,28.9115c5.1871,0.2263,10.714,0.4095,16.583,0.5476
		L886.994,217.9334"/>
	<path fill="#FFFFFF" d="M1008.973,217.1331l-12.0018,32.6291l-8.9876-19.8965l-35.1489,21.3175l31.5917-33.2879l-2.5206-18.7296
		c7.1594-0.1347,14.5009-0.3126,22.0059-0.5321l31.1318-28.9073l-17.0636,28.4539c7.6788-0.2697,15.5087-0.5798,23.4712-0.9291
		L1008.973,217.1331"/>
	<path fill="#FFFFFF" d="M1161.551,208.0873l6.1677,31.1717l-22.4744-18.135l-28.5364,21.9736l16.4491-32.8736l-16.4553-17.1637
		c8.6201-0.5732,17.3174-1.1811,26.073-1.8223l14.2992-28.2964l1.9508,27.0734c8.7969-0.6798,17.6405-1.3917,26.5121-2.1343
		L1161.551,208.0873"/>
	<path fill="#FFFFFF" d="M717.1037,288.2137l-36.157,38.8762l23.0012-26.4258l-8.5505,8.8254
		c14.2646-14.1578,32.892-33.4542,47.7341-47.0054c-0.3574,0.322-0.6814,0.6414-0.9719,0.9579l38.9065-32.6941l-40.3243,34.7185
		c-0.5089,1.0725-0.5992,2.1092-0.2682,3.1076L717.1037,288.2137"/>
	<path fill="#FFFFFF" d="M753.3597,302.8907l-28.3438,39.5348l8.4484-25.8272l-30.5763,22.4069l37.739-38.0429l14.3722-24.4791
		c2.8867,0.7438,6.2012,1.4424,9.9465,2.0931l40.9253-34.4265l-33.4844,35.5782c4.2892,0.5923,9.013,1.1351,14.1743,1.626
		L753.3597,302.8907"/>
	<path fill="#FFFFFF" d="M874.7291,307.6649l-14.3694,39.1957l-9.048-24.3845l-38.0037,24.392l34.4244-39.175l-2.6225-23.3813
		c7.8016,0.1566,15.9092,0.2516,24.2984,0.2866l35.5554-35.4825l-19.722,35.4796c8.7245-0.038,17.7153-0.1346,26.9483-0.2878
		L874.7291,307.6649"/>
	<path fill="#FFFFFF" d="M1053.0861,301.1424l1.6272,38.0706l-23.3312-22.4833l-36.4264,25.8137l23.8514-39.4678l-17.3592-21.6359
		c10.4695-0.4763,21.1079-1.0034,31.8909-1.5793l23.046-35.576l-2.9353,34.4552c10.9553-0.6356,22.0404-1.3187,33.2307-2.0475
		l-33.5944,24.4505"/>
	<path fill="#FFFFFF" d="M639.7751,398.4251l-26.0762,44.7105l11.3602-29.9532l-21.6205,24.3481l30.3467-42.4137l16.8414-28.6604
		c0.5981,1.1826,1.7034,2.3187,3.3192,3.4052l34.8793-39.3538l-31.2954,41.3119c2.2493,1.0245,5.0116,1.9977,8.2906,2.9166
		L639.7751,398.4251"/>
	<path fill="#FFFFFF" d="M733.8638,410.3724l-14.9659,44.6743l-7.0885-28.6021l-34.355,26.4998l32.157-43.8302l-0.0488-27.6333
		c6.4184,0.566,13.3636,1.0691,20.8391,1.5063l35.103-40.7581l-20.6274,41.493c8.1324,0.3547,16.7973,0.6418,25.998,0.8583
		L733.8638,410.3724"/>
	<path fill="#FFFFFF" d="M918.1202,409.1677l-1.1106,43.8515l-23.3807-26.5122l-39.8954,28.5494l27.2909-44.7478l-17.3306-25.7317
		c11.2238-0.2112,22.7328-0.49,34.498-0.8341l28.0663-41.4845l-5.9556,40.7719c12.0382-0.4228,24.3132-0.9091,36.796-1.4566
		L918.1202,409.1677"/>
	<path fill="#FFFFFF" d="M1148.6226,395.5021l13.1794,42.4592l-35.5535-24.385l-37.5781,29.8882l17.0569-44.7344l-30.588-23.7303
		c13.5135-0.8986,27.1481-1.8516,40.8741-2.8567l15.8481-41.3159l9.6917,39.3937c13.7909-1.0657,27.6549-2.1819,41.563-3.346
		L1148.6226,395.5021"/>
	<path fill="#FFFFFF" d="M562.4477,501.5906l-22.068,49.1642l7.9706-19.3203c12.5621-25.5518,29.5825-59.5204,43.6364-84.2829
		l-14.2033,24.8855c-0.6996,1.4748-0.8239,2.9002-0.3687,4.273L562.4477,501.5906"/>
	<path fill="#FFFFFF" d="M611.0529,521.2635l-13.7095,49.3142l-3.3658-32.2117l-25.2366,27.7906l25.2576-47.4667l3.3888-31.5045
		c3.9692,1.0228,8.5268,1.9832,13.6766,2.8781l29.7646-44.9303l-19.5333,46.5139c5.8977,0.8144,12.393,1.5608,19.4899,2.2358
		L611.0529,521.2635"/>
	<path fill="#FFFFFF" d="M773.8375,527.6777l-1.5494,48.6326l-22.5801-30.1746L711.4694,576.32l26.1905-48.6211l-16.3687-29.7493
		c10.7274,0.2154,21.8754,0.3459,33.4106,0.3941l28.7187-46.0647l-6.9475,46.0607c11.9963-0.0522,24.3588-0.185,37.0543-0.3956
		L773.8375,527.6777"/>
	<path fill="#FFFFFF" d="M1013.0165,518.9313l10.4921,47.4938l-35.8212-27.8837l-41.4211,32.1885l20.8153-49.224l-30.8233-27.5054
		c14.3958-0.655,29.0237-1.3798,43.8505-2.1716l21.2028-46.5022l6.4498,44.9611c15.0638-0.8739,30.3058-1.8133,45.6927-2.8154
		L1013.0165,518.9313"/>
	<path fill="#FFFFFF" d="M524.2746,637.8582l-10.1357,52.8032l0.4483-35.2249l-12.7046,28.5293l15.0197-50.1716l6.9049-34.6661
		c0.7502,1.4833,2.1368,2.9082,4.1642,4.2709l20.7217-48.2002l-16.238,50.6499c2.8203,1.285,6.2846,2.5057,10.3971,3.6583
		L524.2746,637.8582"/>
	<path fill="#FFFFFF" d="M639.9671,652.5519l-0.1638,52.3376l-19.7289-33.3264l-29.7771,30.8152l19.8605-51.3712l-12.4751-33.0459
		c8.05,0.7099,16.7612,1.3408,26.1379,1.8891l24.2523-49.4602l-6.1418,50.3796c10.1992,0.4449,21.0667,0.8051,32.6068,1.0767
		L639.9671,652.5519"/>
	<path fill="#FFFFFF" d="M866.5417,651.0734l9.9142,51.3942l-35.2837-30.8298L800.87,704.9012l20.088-52.4081l-30.0727-30.6509
		c14.0773-0.2649,28.5127-0.6146,43.2695-1.0463l22.2618-50.3677l5.4,49.4761c15.0986-0.5302,30.4943-1.1401,46.1508-1.8268
		L866.5417,651.0734"/>
	<path fill="#FFFFFF" d="M1150.0203,634.2681l18.8502,50.2123l-44.8405-28.5658l-42.5182,35.1396l15.8044-52.82l-41.3854-28.397
		c16.9495-1.127,34.0505-2.3224,51.2665-3.5831l15.6906-50.6413l16.2614,48.2366c17.2971-1.3366,34.6859-2.7365,52.13-4.1967
		L1150.0203,634.2681"/>
	<path fill="#FFFFFF" d="M486.7303,749.2451l3.4146-22.9998c-0.1647,0.9994-0.0889,1.9777,0.2281,2.9341L486.7303,749.2451"/>
	<path fill="#FFFFFF" d="M541.4307,780.6558l3.0113,55.2813l-15.2728-35.948l-16.6941,31.0068l9.4268-53.3086l-8.2592-35.8374
		c4.6217,1.1909,9.928,2.3093,15.9233,3.3513l15.3028-51.9003l-3.3595,53.7488c6.868,0.9481,14.4313,1.8171,22.6946,2.6032
		L541.4307,780.6558"/>
	<path fill="#FFFFFF" d="M728.0556,787.991l11.9102,54.353l-34.026-33.5346l-33.947,33.5454l14.5842-54.3215l-28.5785-33.6424
		c12.4906,0.2508,25.4708,0.4028,38.9015,0.459l18.7039-52.9929l6.7102,52.9882c13.9686-0.0609,28.3634-0.2156,43.1456-0.4609
		L728.0556,787.991"/>
	<path fill="#FFFFFF" d="M1002.2422,777.9641l18.4957,53.3319l-44.6473-31.1075l-41.6812,35.9187l15.1488-55.172l-41.1089-31.1453
		c16.7619-0.7626,33.7941-1.6064,51.0576-2.5284l16.9931-53.7289l15.2865,51.9299c17.5401-1.0176,35.2875-2.1115,53.2036-3.2783
		L1002.2422,777.9641"/>
	<path fill="#FFFFFF" d="M492.9793,910.2117l8.3362,57.0499l-11.3781-37.9067l-1.5013,30.8707l-3.4088-54.3767l-4.5249-38.1749
		c0.8197,1.6208,2.3348,3.1778,4.5502,4.6668l3.4098-53.5982l1.4896,56.275c3.0818,1.4042,6.8672,2.738,11.3609,3.9974
		L492.9793,910.2117"/>
	<path fill="#FFFFFF" d="M617.5255,926.0281l15.8433,56.1851l-30.919-35.6575l-21.1039,33.0187l4.0622-55.1952l-24.1819-36.1261
		c8.7963,0.7757,18.3151,1.4651,28.561,2.0642l9.9722-54.5616l9.8171,55.5663c11.1448,0.4862,23.0196,0.8798,35.6294,1.1766
		L617.5255,926.0281"/>
	<path fill="#FFFFFF" d="M861.4243,924.4506l20.6287,55.2176l-43.7744-33.0325l-35.6545,35.5897l9.6887-56.2614l-39.9743-33.4705
		c15.3823-0.2894,31.1558-0.6716,47.2805-1.1432l13.4673-55.5522l16.7589,54.5781c16.4982-0.5794,33.3211-1.2458,50.4289-1.9962
		L861.4243,924.4506"/>
	<path fill="#FFFFFF" d="M1166.5853,906.3591l22.7485,54.4073l-49.3647-30.9008l-42.4352,37.8088l12.2817-57.0433l-47.8618-31.2553
		c18.5208-1.2314,37.207-2.5377,56.0189-3.9152l13.5388-56.2544l21.375,53.6268c18.9005-1.4606,37.9014-2.9902,56.9625-4.5857
		L1166.5853,906.3591"/>
</g>
</svg>
